<svg xmlns="http://www.w3.org/2000/svg" viewBox="0 0 512 448" fill="none">
  <!-- Nave mark — pixel-mosaic saucer, green ink. Dome 2/4 · hull 8/12/8 (light gaps) · fading beam. -->
  <g fill="#1FE07A">
    <rect x="224" y="96"  width="32" height="32"/><rect x="256" y="96"  width="32" height="32"/>
    <rect x="192" y="128" width="32" height="32"/><rect x="224" y="128" width="32" height="32"/><rect x="256" y="128" width="32" height="32"/><rect x="288" y="128" width="32" height="32"/>
    <rect x="128" y="160" width="32" height="32"/><rect x="160" y="160" width="32" height="32"/><rect x="192" y="160" width="32" height="32"/><rect x="224" y="160" width="32" height="32"/><rect x="256" y="160" width="32" height="32"/><rect x="288" y="160" width="32" height="32"/><rect x="320" y="160" width="32" height="32"/><rect x="352" y="160" width="32" height="32"/>
    <rect x="64" y="192" width="32" height="32"/><rect x="96" y="192" width="32" height="32"/><rect x="128" y="192" width="32" height="32"/><rect x="160" y="192" width="32" height="32"/><rect x="192" y="192" width="32" height="32"/><rect x="224" y="192" width="32" height="32"/><rect x="256" y="192" width="32" height="32"/><rect x="288" y="192" width="32" height="32"/><rect x="320" y="192" width="32" height="32"/><rect x="352" y="192" width="32" height="32"/><rect x="384" y="192" width="32" height="32"/><rect x="416" y="192" width="32" height="32"/>
    <rect x="128" y="224" width="32" height="32"/><rect x="160" y="224" width="32" height="32"/><rect x="224" y="224" width="32" height="32"/><rect x="256" y="224" width="32" height="32"/><rect x="320" y="224" width="32" height="32"/><rect x="352" y="224" width="32" height="32"/>
    <rect x="224" y="288" width="32" height="32" opacity=".4"/><rect x="256" y="288" width="32" height="32" opacity=".4"/>
    <rect x="192" y="320" width="32" height="32" opacity=".16"/><rect x="224" y="320" width="32" height="32" opacity=".16"/><rect x="256" y="320" width="32" height="32" opacity=".16"/><rect x="288" y="320" width="32" height="32" opacity=".16"/>
  </g>
</svg>
