<svg width="161" height="28" viewBox="0 0 161 28" fill="none" xmlns="http://www.w3.org/2000/svg">
<g clip-path="url(#clip0_2831_53655)">
<path fill-rule="evenodd" clip-rule="evenodd" d="M14.079 0C12.0495 0 10.2323 1.25675 9.50206 3.15886L0 27.8693H7.21783L14.6989 8.42363C14.8857 7.9481 15.3443 7.61693 15.8792 7.61693C16.4142 7.61693 16.8727 7.9481 17.0595 8.42363H18.0531V4.47505H16.2019L17.9257 0H14.0705L14.079 0Z" fill="#C7C3B2"/>
<path fill-rule="evenodd" clip-rule="evenodd" d="M9.5016 3.15886C10.2064 1.33317 11.9132 0.101899 13.8323 0H14.0786H17.8148C19.8443 0 21.6615 1.25675 22.3918 3.15886L31.8939 27.8693H24.5486L15.3353 3.91461C14.8088 2.74277 13.637 1.92758 12.2783 1.92758C10.9197 1.92758 9.73937 2.75127 9.21289 3.9231L9.5016 3.16735V3.15886Z" fill="white"/>
<path d="M43.3419 21.5948L44.7515 17.8076H50.9673L52.3939 21.5948H55.0602L49.4049 6.26758H46.4328L40.752 21.5948H43.3334H43.3419ZM47.8509 8.98488L50.2795 15.6592H45.4478L47.8509 8.98488Z" fill="white"/>
<path d="M56.2402 17.9012C56.3082 20.3298 58.3461 21.7309 61.3097 21.7309C63.993 21.7309 66.014 20.3723 66.014 18.2239C66.014 15.7274 63.9591 15.2009 61.4201 14.8952C59.8152 14.7169 58.7537 14.5895 58.7537 13.5366C58.7537 12.6365 59.6623 12.0675 61.0549 12.0675C62.4476 12.0675 63.3986 12.7893 63.526 13.8168H65.8272C65.6744 11.5156 63.7468 10.2503 61.0125 10.2503C58.3461 10.2249 56.461 11.609 56.461 13.7319C56.461 16.0501 58.4565 16.602 60.987 16.9077C62.7023 17.1285 63.7213 17.2134 63.7213 18.4192C63.7213 19.3193 62.7702 19.8883 61.3182 19.8883C59.6284 19.8883 58.6349 19.0561 58.5414 17.8928H56.2402V17.9012Z" fill="white"/>
<path d="M67.7891 17.9012C67.857 20.3298 69.895 21.7309 72.8585 21.7309C75.5419 21.7309 77.5628 20.3723 77.5628 18.2239C77.5628 15.7274 75.5079 15.2009 72.9689 14.8952C71.364 14.7169 70.3026 14.5895 70.3026 13.5366C70.3026 12.6365 71.2112 12.0675 72.6038 12.0675C73.9964 12.0675 74.9474 12.7893 75.0748 13.8168H77.376C77.2232 11.5156 75.2956 10.2503 72.5613 10.2503C69.895 10.2249 68.0098 11.609 68.0098 13.7319C68.0098 16.0501 70.0054 16.602 72.5358 16.9077C74.2511 17.1285 75.2701 17.2134 75.2701 18.4192C75.2701 19.3193 74.3191 19.8883 72.867 19.8883C71.1772 19.8883 70.1837 19.0561 70.0903 17.8928H67.7891V17.9012Z" fill="white"/>
<path d="M85.2893 21.7299C88.0405 21.7299 89.9087 20.0401 90.2908 17.8323H87.9471C87.6244 19.0805 86.58 19.8023 85.1534 19.8023C83.3107 19.8023 82.1219 18.5541 82.054 16.652V16.4991H90.4182C90.4606 16.1934 90.4861 15.8877 90.4861 15.599C90.4182 12.3128 88.2783 10.2578 85.0685 10.2578C81.8587 10.2578 79.6084 12.559 79.6084 16.0151C79.6084 19.4712 81.7992 21.7299 85.2893 21.7299ZM82.1474 14.7668C82.3172 13.1704 83.5994 12.1599 85.0939 12.1599C86.7158 12.1599 87.8707 13.1025 88.066 14.7668H82.1474Z" fill="white"/>
<path d="M105.797 10.2578C103.979 10.2578 102.723 11.0645 102.001 12.2958C101.33 10.8522 100.031 10.2578 98.5789 10.2578C96.906 10.2833 95.955 11.0221 95.3266 11.8542L95.0634 10.3852H93.0254V21.594H95.3691V15.599C95.3691 13.6035 96.3626 12.2958 97.9675 12.2958C99.5724 12.2958 100.311 13.3233 100.311 15.2933V21.6025H102.672V15.5396C102.672 13.5271 103.691 12.2958 105.296 12.2958C106.816 12.2958 107.614 13.3233 107.614 15.2933V21.6025H109.958V15.1405C109.958 11.591 108.089 10.2578 105.797 10.2578Z" fill="white"/>
<path d="M118.67 10.2586C116.954 10.2586 115.808 11.0483 115.069 12.0503V6.26758H112.726V21.5948H114.764L115.044 19.973C115.74 20.9835 116.929 21.7222 118.661 21.7222C121.693 21.7222 123.909 19.421 123.909 15.9904C123.909 12.3815 121.701 10.2586 118.661 10.2586H118.67ZM118.279 19.7352C116.326 19.7352 115.052 18.1812 115.052 15.9734C115.052 13.7656 116.334 12.2711 118.279 12.2711C120.224 12.2711 121.531 13.7996 121.531 15.9904C121.531 18.1812 120.232 19.7352 118.279 19.7352Z" fill="white"/>
<path d="M126.44 21.5942H128.784V6.27539H126.44V21.6027V21.5942Z" fill="white"/>
<path d="M134.932 21.6628L134.499 22.7582C134.15 23.6753 133.938 23.8961 133.021 23.8961H131.374V25.9765H133.887C135.509 25.9765 135.993 25.1698 136.681 23.3527L141.708 10.3945H139.211L136.197 18.9116L133.097 10.3945H130.609L134.923 21.6713L134.932 21.6628Z" fill="white"/>
<path d="M144.577 21.5948L145.987 17.8076H152.203L153.629 21.5948H156.296L150.64 6.26758H147.668L141.987 21.5948H144.569H144.577ZM149.086 8.98488L151.515 15.6592H146.683L149.086 8.98488Z" fill="white"/>
<path d="M158.512 21.5942H161V6.27539H158.512V21.6027V21.5942Z" fill="white"/>
</g>
<defs>
<clipPath id="clip0_2831_53655">
<rect width="161" height="27.8693" fill="white"/>
</clipPath>
</defs>
</svg>
